<svg width="250" height="250" viewBox="0 0 250 250" fill="none" xmlns="http://www.w3.org/2000/svg">
<rect width="250" height="250" fill="white"/>
<mask id="path-2-outside-1_4382_2" maskUnits="userSpaceOnUse" x="73" y="65" width="109" height="128" fill="black">
<rect fill="white" x="73" y="65" width="109" height="128"/>
<path d="M163.2 158.44C164.533 158.44 165.653 158.92 166.56 159.88L176.08 170.04C171.387 176.013 165.547 180.547 158.56 183.64C151.627 186.733 143.36 188.28 133.76 188.28C125.067 188.28 117.253 186.813 110.32 183.88C103.387 180.893 97.4933 176.76 92.64 171.48C87.7867 166.2 84.0533 159.933 81.44 152.68C78.8267 145.427 77.52 137.507 77.52 128.92C77.52 123.16 78.1333 117.693 79.36 112.52C80.64 107.293 82.48 102.493 84.88 98.12C87.28 93.7467 90.16 89.8 93.52 86.28C96.9333 82.76 100.773 79.7733 105.04 77.32C109.307 74.8133 113.947 72.92 118.96 71.64C124.027 70.3067 129.413 69.64 135.12 69.64C139.387 69.64 143.413 70.0133 147.2 70.76C151.04 71.5067 154.613 72.5467 157.92 73.88C161.227 75.2133 164.267 76.84 167.04 78.76C169.867 80.6267 172.4 82.68 174.64 84.92L166.56 95.96C166.08 96.6533 165.467 97.2667 164.72 97.8C163.973 98.3333 162.96 98.6 161.68 98.6C160.4 98.6 159.093 98.1467 157.76 97.24C156.48 96.3333 154.88 95.32 152.96 94.2C151.093 93.08 148.72 92.0667 145.84 91.16C143.013 90.2533 139.413 89.8 135.04 89.8C130.187 89.8 125.733 90.68 121.68 92.44C117.627 94.2 114.133 96.76 111.2 100.12C108.32 103.427 106.08 107.507 104.48 112.36C102.88 117.213 102.08 122.733 102.08 128.92C102.08 135.16 102.933 140.733 104.64 145.64C106.4 150.493 108.773 154.6 111.76 157.96C114.8 161.32 118.32 163.88 122.32 165.64C126.373 167.347 130.693 168.2 135.28 168.2C138 168.2 140.453 168.067 142.64 167.8C144.88 167.533 146.933 167.08 148.8 166.44C150.72 165.8 152.507 164.973 154.16 163.96C155.867 162.947 157.573 161.667 159.28 160.12C159.867 159.64 160.48 159.24 161.12 158.92C161.76 158.6 162.453 158.44 163.2 158.44Z"/>
</mask>
<path d="M163.2 158.44C164.533 158.44 165.653 158.92 166.56 159.88L176.08 170.04C171.387 176.013 165.547 180.547 158.56 183.64C151.627 186.733 143.36 188.28 133.76 188.28C125.067 188.28 117.253 186.813 110.32 183.88C103.387 180.893 97.4933 176.76 92.64 171.48C87.7867 166.2 84.0533 159.933 81.44 152.68C78.8267 145.427 77.52 137.507 77.52 128.92C77.52 123.16 78.1333 117.693 79.36 112.52C80.64 107.293 82.48 102.493 84.88 98.12C87.28 93.7467 90.16 89.8 93.52 86.28C96.9333 82.76 100.773 79.7733 105.04 77.32C109.307 74.8133 113.947 72.92 118.96 71.64C124.027 70.3067 129.413 69.64 135.12 69.64C139.387 69.64 143.413 70.0133 147.2 70.76C151.04 71.5067 154.613 72.5467 157.92 73.88C161.227 75.2133 164.267 76.84 167.04 78.76C169.867 80.6267 172.4 82.68 174.64 84.92L166.56 95.96C166.08 96.6533 165.467 97.2667 164.72 97.8C163.973 98.3333 162.96 98.6 161.68 98.6C160.4 98.6 159.093 98.1467 157.76 97.24C156.48 96.3333 154.88 95.32 152.96 94.2C151.093 93.08 148.72 92.0667 145.84 91.16C143.013 90.2533 139.413 89.8 135.04 89.8C130.187 89.8 125.733 90.68 121.68 92.44C117.627 94.2 114.133 96.76 111.2 100.12C108.32 103.427 106.08 107.507 104.48 112.36C102.88 117.213 102.08 122.733 102.08 128.92C102.08 135.16 102.933 140.733 104.64 145.64C106.4 150.493 108.773 154.6 111.76 157.96C114.8 161.32 118.32 163.88 122.32 165.64C126.373 167.347 130.693 168.2 135.28 168.2C138 168.2 140.453 168.067 142.64 167.8C144.88 167.533 146.933 167.08 148.8 166.44C150.72 165.8 152.507 164.973 154.16 163.96C155.867 162.947 157.573 161.667 159.28 160.12C159.867 159.64 160.48 159.24 161.12 158.92C161.76 158.6 162.453 158.44 163.2 158.44Z" fill="#050505"/>
<path d="M166.56 159.88L169.479 157.145L169.473 157.139L169.468 157.134L166.56 159.88ZM176.08 170.04L179.225 172.511L181.347 169.811L178.999 167.305L176.08 170.04ZM158.56 183.64L156.941 179.982L156.93 179.987L158.56 183.64ZM110.32 183.88L108.738 187.554L108.749 187.559L108.761 187.564L110.32 183.88ZM92.64 171.48L95.5849 168.773L95.5849 168.773L92.64 171.48ZM81.44 152.68L85.2032 151.324L85.2032 151.324L81.44 152.68ZM79.36 112.52L75.4748 111.569L75.4713 111.583L75.4679 111.597L79.36 112.52ZM84.88 98.12L88.3867 100.044L88.3867 100.044L84.88 98.12ZM93.52 86.28L90.6484 83.4954L90.6374 83.5067L90.6266 83.5181L93.52 86.28ZM105.04 77.32L107.034 80.7876L107.05 80.7783L107.066 80.7688L105.04 77.32ZM118.96 71.64L119.95 75.5157L119.964 75.512L119.978 75.5083L118.96 71.64ZM147.2 70.76L146.426 74.6844L146.437 74.6865L147.2 70.76ZM157.92 73.88L156.424 77.5898L156.424 77.5898L157.92 73.88ZM167.04 78.76L164.763 82.0488L164.799 82.0737L164.836 82.0979L167.04 78.76ZM174.64 84.92L177.868 87.2824L179.893 84.5158L177.468 82.0916L174.64 84.92ZM166.56 95.96L163.332 93.5976L163.301 93.64L163.271 93.6832L166.56 95.96ZM164.72 97.8L162.395 94.5451L162.395 94.5451L164.72 97.8ZM157.76 97.24L155.448 100.504L155.479 100.526L155.511 100.548L157.76 97.24ZM152.96 94.2L150.902 97.63L150.923 97.6427L150.945 97.6551L152.96 94.2ZM145.84 91.16L144.618 94.9689L144.629 94.9722L144.639 94.9754L145.84 91.16ZM121.68 92.44L123.273 96.109L123.273 96.109L121.68 92.44ZM111.2 100.12L108.187 97.4894L108.184 97.4929L111.2 100.12ZM104.48 112.36L108.279 113.612L108.279 113.612L104.48 112.36ZM104.64 145.64L100.862 146.954L100.871 146.979L100.88 147.004L104.64 145.64ZM111.76 157.96L108.77 160.617L108.782 160.631L108.794 160.644L111.76 157.96ZM122.32 165.64L120.709 169.301L120.738 169.314L120.768 169.327L122.32 165.64ZM142.64 167.8L142.167 163.828L142.156 163.829L142.64 167.8ZM148.8 166.44L147.535 162.645L147.519 162.651L147.503 162.656L148.8 166.44ZM154.16 163.96L152.118 160.521L152.094 160.535L152.07 160.55L154.16 163.96ZM159.28 160.12L156.747 157.024L156.669 157.088L156.594 157.156L159.28 160.12ZM161.12 158.92L162.909 162.498L162.909 162.498L161.12 158.92ZM163.2 158.44V162.44C163.376 162.44 163.447 162.469 163.464 162.477C163.48 162.483 163.543 162.511 163.652 162.626L166.56 159.88L169.468 157.134C167.797 155.365 165.622 154.44 163.2 154.44V158.44ZM166.56 159.88L163.641 162.615L173.161 172.775L176.08 170.04L178.999 167.305L169.479 157.145L166.56 159.88ZM176.08 170.04L172.935 167.569C168.648 173.025 163.333 177.152 156.941 179.982L158.56 183.64L160.179 187.298C167.76 183.941 174.125 179.002 179.225 172.511L176.08 170.04ZM158.56 183.64L156.93 179.987C150.626 182.8 142.942 184.28 133.76 184.28V188.28V192.28C143.778 192.28 152.627 190.667 160.19 187.293L158.56 183.64ZM133.76 188.28V184.28C125.52 184.28 118.248 182.891 111.879 180.196L110.32 183.88L108.761 187.564C116.258 190.736 124.613 192.28 133.76 192.28V188.28ZM110.32 183.88L111.902 180.206C105.458 177.43 100.037 173.617 95.5849 168.773L92.64 171.48L89.6951 174.187C94.9494 179.903 101.315 184.356 108.738 187.554L110.32 183.88ZM92.64 171.48L95.5849 168.773C91.1178 163.913 87.65 158.115 85.2032 151.324L81.44 152.68L77.6768 154.036C80.4567 161.752 84.4556 168.487 89.6951 174.187L92.64 171.48ZM81.44 152.68L85.2032 151.324C82.7633 144.552 81.52 137.097 81.52 128.92H77.52H73.52C73.52 137.917 74.89 146.301 77.6768 154.036L81.44 152.68ZM77.52 128.92H81.52C81.52 123.445 82.1028 118.29 83.2521 113.443L79.36 112.52L75.4679 111.597C74.1639 117.097 73.52 122.875 73.52 128.92H77.52ZM79.36 112.52L83.2452 113.471C84.4486 108.558 86.1675 104.088 88.3867 100.044L84.88 98.12L81.3733 96.1956C78.7925 100.898 76.8314 106.029 75.4748 111.569L79.36 112.52ZM84.88 98.12L88.3867 100.044C90.6237 95.968 93.2993 92.3043 96.4134 89.0419L93.52 86.28L90.6266 83.5181C87.0207 87.2957 83.9363 91.5254 81.3733 96.1956L84.88 98.12ZM93.52 86.28L96.3916 89.0646C99.5446 85.813 103.089 83.056 107.034 80.7876L105.04 77.32L103.046 73.8524C98.4577 76.4907 94.3221 79.7069 90.6484 83.4954L93.52 86.28ZM105.04 77.32L107.066 80.7688C110.995 78.4609 115.283 76.707 119.95 75.5157L118.96 71.64L117.97 67.7643C112.61 69.133 107.619 71.1657 103.014 73.8712L105.04 77.32ZM118.96 71.64L119.978 75.5083C124.684 74.2698 129.727 73.64 135.12 73.64V69.64V65.64C129.1 65.64 123.369 66.3435 117.942 67.7717L118.96 71.64ZM135.12 69.64V73.64C139.154 73.64 142.919 73.993 146.426 74.6844L147.2 70.76L147.974 66.8356C143.907 66.0337 139.62 65.64 135.12 65.64V69.64ZM147.2 70.76L146.437 74.6865C150.05 75.3891 153.376 76.3606 156.424 77.5898L157.92 73.88L159.416 70.1702C155.851 68.7328 152.03 67.6243 147.963 66.8335L147.2 70.76ZM157.92 73.88L156.424 77.5898C159.471 78.8184 162.247 80.3069 164.763 82.0488L167.04 78.76L169.317 75.4712C166.286 73.3731 162.982 71.6082 159.416 70.1702L157.92 73.88ZM167.04 78.76L164.836 82.0979C167.453 83.8263 169.775 85.7114 171.812 87.7484L174.64 84.92L177.468 82.0916C175.025 79.6485 172.28 77.427 169.244 75.4221L167.04 78.76ZM174.64 84.92L171.412 82.5576L163.332 93.5976L166.56 95.96L169.788 98.3224L177.868 87.2824L174.64 84.92ZM166.56 95.96L163.271 93.6832C163.076 93.9653 162.8 94.2561 162.395 94.5451L164.72 97.8L167.045 101.055C168.134 100.277 169.084 99.3414 169.849 98.2368L166.56 95.96ZM164.72 97.8L162.395 94.5451C162.547 94.4362 162.446 94.6 161.68 94.6V98.6V102.6C163.474 102.6 165.399 102.23 167.045 101.055L164.72 97.8ZM161.68 98.6V94.6C161.388 94.6 160.852 94.5052 160.009 93.9323L157.76 97.24L155.511 100.548C157.335 101.788 159.412 102.6 161.68 102.6V98.6ZM157.76 97.24L160.072 93.9759C158.666 92.9798 156.959 91.9019 154.975 90.7449L152.96 94.2L150.945 97.6551C152.801 98.7381 154.294 99.6869 155.448 100.504L157.76 97.24ZM152.96 94.2L155.018 90.77C152.801 89.4397 150.115 88.3122 147.041 87.3446L145.84 91.16L144.639 94.9754C147.325 95.8211 149.386 96.7203 150.902 97.63L152.96 94.2ZM145.84 91.16L147.062 87.3511C143.701 86.2732 139.651 85.8 135.04 85.8V89.8V93.8C139.176 93.8 142.326 94.2335 144.618 94.9689L145.84 91.16ZM135.04 89.8V85.8C129.693 85.8 124.69 86.772 120.087 88.7709L121.68 92.44L123.273 96.109C126.776 94.588 130.681 93.8 135.04 93.8V89.8ZM121.68 92.44L120.087 88.7709C115.484 90.7697 111.507 93.6865 108.187 97.4894L111.2 100.12L114.213 102.751C116.76 99.8335 119.77 97.6303 123.273 96.109L121.68 92.44ZM111.2 100.12L108.184 97.4929C104.901 101.262 102.421 105.831 100.681 111.108L104.48 112.36L108.279 113.612C109.739 109.182 111.739 105.591 114.216 102.747L111.2 100.12ZM104.48 112.36L100.681 111.108C98.9233 116.44 98.08 122.394 98.08 128.92H102.08H106.08C106.08 123.072 106.837 117.987 108.279 113.612L104.48 112.36ZM102.08 128.92H98.08C98.08 135.52 98.9822 141.55 100.862 146.954L104.64 145.64L108.418 144.326C106.884 139.917 106.08 134.8 106.08 128.92H102.08ZM104.64 145.64L100.88 147.004C102.787 152.263 105.401 156.827 108.77 160.617L111.76 157.96L114.75 155.303C112.146 152.373 110.013 148.723 108.4 144.276L104.64 145.64ZM111.76 157.96L108.794 160.644C112.197 164.406 116.174 167.306 120.709 169.301L122.32 165.64L123.931 161.979C120.466 160.454 117.403 158.234 114.726 155.276L111.76 157.96ZM122.32 165.64L120.768 169.327C125.334 171.249 130.184 172.2 135.28 172.2V168.2V164.2C131.203 164.2 127.413 163.444 123.872 161.953L122.32 165.64ZM135.28 168.2V172.2C138.126 172.2 140.745 172.061 143.124 171.771L142.64 167.8L142.156 163.829C140.162 164.073 137.874 164.2 135.28 164.2V168.2ZM142.64 167.8L143.113 171.772C145.594 171.477 147.928 170.967 150.097 170.224L148.8 166.44L147.503 162.656C145.938 163.193 144.166 163.59 142.167 163.828L142.64 167.8ZM148.8 166.44L150.065 170.235C152.261 169.503 154.326 168.55 156.25 167.37L154.16 163.96L152.07 160.55C150.687 161.397 149.179 162.097 147.535 162.645L148.8 166.44ZM154.16 163.96L156.202 167.399C158.172 166.23 160.092 164.782 161.966 163.084L159.28 160.12L156.594 157.156C155.055 158.551 153.561 159.663 152.118 160.521L154.16 163.96ZM159.28 160.12L161.813 163.216C162.184 162.912 162.549 162.678 162.909 162.498L161.12 158.92L159.331 155.342C158.411 155.802 157.55 156.368 156.747 157.024L159.28 160.12ZM161.12 158.92L162.909 162.498C162.969 162.468 163.046 162.44 163.2 162.44V158.44V154.44C161.86 154.44 160.551 154.732 159.331 155.342L161.12 158.92Z" fill="#050505" mask="url(#path-2-outside-1_4382_2)"/>
</svg>
